<?xml version="1.0" encoding="UTF-8" standalone="no"?>
<!DOCTYPE svg PUBLIC "-//W3C//DTD SVG 1.1//EN" "http://www.w3.org/Graphics/SVG/1.1/DTD/svg11.dtd">
<svg xmlns="http://www.w3.org/2000/svg" xmlns:xlink="http://www.w3.org/1999/xlink" width="456" height="456" viewBox="0 0 456 456">
  <defs>
    <linearGradient id="linear-gradient" x1="1.036" y1="0.603" x2="0.06" y2="0.413" gradientUnits="objectBoundingBox">
      <stop offset="0" stop-color="#af3bfe"/>
      <stop offset="1" stop-color="#4b0f7f"/>
    </linearGradient>
  </defs>
  <g id="Gruppe_4" data-name="Gruppe 4" transform="translate(-82 -54)">
    <rect id="Rechteck_1" data-name="Rechteck 1" width="456" height="456" transform="translate(82 54)" fill="#100e35"/>
    <g id="Gruppe_3" data-name="Gruppe 3" transform="translate(-110.07 -354.07)">
      <rect id="Rechteck_2" data-name="Rechteck 2" width="202" height="202" transform="translate(319.07 535.07)" fill="none"/>
      <g id="Gruppe_2" data-name="Gruppe 2" transform="translate(331.221 534.95)">
        <path id="Pfad_8" data-name="Pfad 8" d="M50.18-2.65S42.353,3.791,42.353,8.912s7.827,8.919,7.827,8.919l56.233,32.843s5.663,3.037,5.7,11.15a14.092,14.092,0,0,1-5.7,11.756L43.167,109.695a12.454,12.454,0,0,1-4.455.965,14.8,14.8,0,0,1-4.71-.965L-9.562,86.064,8.369,16.983Z" transform="translate(62.667 91.58)" fill="url(#linear-gradient)"/>
        <path id="Pfad_9" data-name="Pfad 9" d="M.618,98.838C.433,57.213,21.558,45.807,43.7,28.91L89.715,1.056A14.4,14.4,0,0,1,95.407-.76a10.218,10.218,0,0,1,5.15,1.492L160.855,36s7.551,3.915,7.27,12.585-8.668,13.425-8.668,13.425l-52.047,31.71C19.544,154.752,97.956,200.9,97.956,200.9L37.591,169C26.934,162.848.142,142.823.618,98.838Z" transform="translate(-0.612 0.763)" fill="#8c25e8"/>
      </g>
    </g>
  </g>
</svg>
