<svg id="svg" version="1.1" xmlns="http://www.w3.org/2000/svg" xmlns:xlink="http://www.w3.org/1999/xlink" width="400" height="77.45197168857432" viewBox="0, 0, 400,77.45197168857432"><g id="svgg"><path id="path0" d="M17.083 0.109 C 16.900 0.148,16.152 0.295,15.422 0.436 C 14.691 0.577,13.791 0.827,13.422 0.991 C 13.052 1.156,12.469 1.382,12.125 1.492 C 11.781 1.602,11.500 1.750,11.500 1.820 C 11.500 1.889,11.202 2.045,10.838 2.165 C 10.473 2.285,10.035 2.514,9.864 2.674 C 9.692 2.834,9.297 3.096,8.984 3.256 C 8.672 3.416,8.379 3.592,8.333 3.648 C 8.287 3.704,7.905 4.027,7.483 4.366 C 6.744 4.959,5.726 5.943,4.818 6.941 C 4.580 7.203,4.055 7.902,3.651 8.496 C 3.247 9.089,2.832 9.667,2.728 9.780 C 2.624 9.893,2.403 10.363,2.237 10.826 C 2.070 11.288,1.877 11.667,1.807 11.667 C 1.737 11.667,1.594 11.985,1.490 12.375 C 1.386 12.765,1.159 13.395,0.986 13.777 C -0.335 16.692,-0.423 50.736,0.887 52.315 C 0.995 52.445,1.059 52.558,1.030 52.567 C 1.001 52.576,1.057 52.794,1.155 53.053 C 1.253 53.311,1.333 53.586,1.333 53.665 C 1.333 54.082,3.428 57.855,3.768 58.050 C 3.896 58.123,4.000 58.284,4.000 58.408 C 4.000 58.719,6.551 61.371,7.667 62.220 C 8.171 62.603,8.685 63.013,8.808 63.130 C 8.932 63.247,9.304 63.456,9.636 63.595 C 9.967 63.733,10.278 63.910,10.327 63.988 C 10.445 64.176,13.277 65.443,13.917 65.594 C 14.192 65.659,14.492 65.769,14.583 65.837 C 15.818 66.759,50.512 66.791,51.155 65.870 C 51.207 65.795,51.587 65.638,52.000 65.520 C 52.745 65.307,53.015 65.156,54.895 63.903 C 55.913 63.224,57.168 61.937,57.905 60.817 C 59.004 59.147,59.163 58.869,59.422 58.167 C 59.986 56.633,60.187 55.710,60.283 54.208 L 60.382 52.667 40.368 52.667 C 29.360 52.667,20.317 52.608,20.273 52.536 C 20.228 52.465,19.946 52.387,19.645 52.365 C 15.977 52.085,13.193 48.052,14.332 44.669 C 15.090 42.421,16.554 40.835,18.248 40.427 C 18.522 40.361,18.801 40.219,18.867 40.112 C 18.955 39.969,21.162 39.890,27.036 39.817 C 34.797 39.721,36.338 39.616,36.667 39.164 C 36.712 39.101,37.127 38.925,37.588 38.774 C 38.049 38.622,38.701 38.311,39.037 38.082 C 39.374 37.854,39.693 37.667,39.747 37.667 C 39.911 37.667,42.333 35.601,42.333 35.461 C 42.333 35.390,42.521 35.168,42.750 34.969 C 42.979 34.770,43.167 34.522,43.167 34.418 C 43.167 34.314,43.322 34.063,43.512 33.859 C 43.702 33.655,44.008 33.172,44.191 32.786 C 44.375 32.399,44.630 31.896,44.758 31.667 C 44.886 31.438,45.082 30.706,45.195 30.042 C 45.307 29.377,45.447 28.833,45.507 28.833 C 45.567 28.833,45.631 28.312,45.650 27.675 L 45.684 26.517 32.384 26.457 C 17.997 26.392,18.545 26.427,17.083 25.480 C 16.038 24.803,14.893 23.439,14.618 22.545 C 14.484 22.108,14.281 21.440,14.167 21.061 C 13.494 18.825,15.258 15.739,17.941 14.461 L 19.083 13.917 34.333 13.823 C 48.351 13.738,50.092 13.685,50.583 13.332 C 50.675 13.266,50.965 13.161,51.227 13.099 C 53.532 12.547,57.227 9.634,58.432 7.418 C 58.532 7.234,58.772 6.808,58.964 6.471 C 59.156 6.134,59.364 5.590,59.425 5.263 C 59.487 4.935,59.595 4.667,59.665 4.667 C 59.888 4.667,60.192 3.143,60.289 1.542 L 60.382 0.000 38.899 0.019 C 27.084 0.030,17.267 0.071,17.083 0.109 " stroke="none" fill="#ec1c5c" fill-rule="evenodd"></path><path id="path1" d="M284.845 3.504 C 284.440 3.590,284.065 3.717,284.012 3.788 C 283.960 3.859,283.627 4.064,283.273 4.245 C 282.303 4.739,281.206 6.087,280.895 7.167 C 280.749 7.671,280.564 8.214,280.482 8.373 C 280.280 8.767,280.293 10.456,280.500 10.583 C 280.592 10.640,280.672 10.888,280.679 11.135 C 280.717 12.479,282.484 14.824,283.653 15.080 C 283.935 15.142,284.167 15.255,284.167 15.332 C 284.167 15.850,288.631 15.857,288.804 15.338 C 288.835 15.244,288.971 15.167,289.105 15.167 C 289.722 15.167,291.666 13.686,291.666 13.217 C 291.667 13.107,291.769 12.957,291.893 12.883 C 292.449 12.556,292.874 10.140,292.654 8.554 C 292.419 6.850,292.237 6.478,290.977 5.123 C 290.410 4.514,290.173 4.349,288.939 3.705 C 288.362 3.404,285.896 3.283,284.845 3.504 M88.667 33.833 L 88.667 63.333 108.250 63.333 L 127.833 63.333 127.833 58.333 L 127.833 53.333 113.333 53.333 L 98.833 53.333 98.833 46.083 L 98.833 38.833 112.167 38.833 L 125.500 38.833 125.500 33.917 L 125.500 29.000 112.167 29.000 L 98.833 29.000 98.833 21.583 L 98.833 14.167 113.333 14.167 L 127.833 14.167 127.833 9.250 L 127.833 4.333 108.250 4.333 L 88.667 4.333 88.667 33.833 M218.833 28.083 C 218.833 42.177,218.896 51.956,218.986 52.127 C 219.070 52.286,219.254 53.047,219.395 53.818 C 219.535 54.589,219.714 55.264,219.793 55.318 C 219.871 55.372,220.033 55.679,220.151 56.000 C 220.501 56.945,220.732 57.396,221.042 57.740 C 221.202 57.917,221.333 58.159,221.333 58.278 C 221.333 58.396,221.521 58.615,221.750 58.765 C 221.979 58.915,222.167 59.124,222.167 59.229 C 222.167 59.334,222.474 59.681,222.849 60.001 C 223.224 60.321,223.722 60.759,223.955 60.974 C 224.482 61.458,227.128 62.833,227.534 62.833 C 227.699 62.833,227.833 62.896,227.833 62.973 C 227.833 63.161,229.941 63.658,231.263 63.782 C 231.852 63.837,232.333 63.946,232.333 64.024 C 232.333 64.103,233.075 64.167,233.981 64.167 L 235.630 64.167 235.722 63.625 C 235.861 62.813,235.846 55.612,235.705 55.399 C 235.638 55.298,234.983 55.174,234.250 55.123 C 233.005 55.037,231.356 54.617,231.167 54.338 C 231.121 54.270,230.885 54.110,230.643 53.983 C 229.991 53.638,229.035 52.406,228.803 51.613 C 228.691 51.230,228.540 50.875,228.467 50.824 C 228.394 50.773,228.315 40.310,228.292 27.574 L 228.250 4.417 223.542 4.372 L 218.833 4.328 218.833 28.083 M300.203 31.361 C 300.240 48.268,300.293 52.737,300.458 52.792 C 300.573 52.830,300.667 53.019,300.667 53.212 C 300.667 53.780,301.189 55.729,301.414 56.000 C 301.528 56.137,301.754 56.606,301.916 57.042 C 302.079 57.477,302.268 57.833,302.336 57.833 C 302.404 57.833,302.547 58.045,302.654 58.303 C 302.993 59.122,305.783 61.833,306.287 61.833 C 306.404 61.833,306.500 61.894,306.500 61.969 C 306.500 62.132,307.581 62.667,307.910 62.667 C 308.038 62.667,308.246 62.770,308.373 62.897 C 308.634 63.158,311.153 63.833,311.865 63.833 C 312.123 63.833,312.333 63.908,312.333 64.000 C 312.333 64.256,318.155 64.218,318.718 63.958 L 319.169 63.750 319.126 59.750 L 319.083 55.750 316.833 55.619 C 315.596 55.547,314.558 55.416,314.528 55.328 C 314.497 55.239,314.329 55.167,314.155 55.167 C 312.916 55.167,310.550 53.385,310.261 52.235 C 310.195 51.970,310.072 51.711,309.989 51.660 C 309.639 51.444,309.506 47.856,309.503 38.625 L 309.500 28.833 313.667 28.833 L 317.833 28.833 317.833 24.500 L 317.833 20.167 313.690 20.167 L 309.547 20.167 309.334 16.708 C 309.217 14.806,309.056 13.179,308.977 13.092 C 308.898 13.005,308.833 12.508,308.833 11.987 C 308.833 11.467,308.786 10.807,308.729 10.521 L 308.625 10.000 304.390 10.000 L 300.156 10.000 300.203 31.361 M188.167 19.586 C 187.021 19.716,185.933 19.894,185.750 19.981 C 185.567 20.067,184.594 20.304,183.588 20.508 C 182.582 20.711,181.644 20.939,181.504 21.014 C 181.365 21.090,180.688 21.319,180.000 21.524 C 179.313 21.729,178.713 21.945,178.667 22.004 C 178.621 22.063,178.190 22.251,177.708 22.422 L 176.833 22.733 176.833 50.033 L 176.833 77.333 181.583 77.333 L 186.333 77.333 186.333 70.083 C 186.333 63.940,186.369 62.833,186.569 62.833 C 186.699 62.833,186.831 62.910,186.863 63.004 C 186.923 63.185,189.324 63.828,189.948 63.831 C 190.149 63.832,190.360 63.908,190.417 64.000 C 190.545 64.207,197.109 64.229,197.236 64.022 C 197.286 63.942,197.721 63.825,198.205 63.762 C 199.342 63.613,201.226 63.147,201.333 62.989 C 201.379 62.921,201.867 62.707,202.417 62.514 C 202.967 62.321,203.442 62.089,203.472 61.998 C 203.503 61.908,203.611 61.833,203.714 61.833 C 204.093 61.833,206.188 60.286,207.165 59.285 C 208.580 57.835,208.716 57.668,209.087 56.919 C 209.268 56.554,209.510 56.156,209.623 56.034 C 209.737 55.912,209.953 55.386,210.104 54.865 C 210.254 54.343,210.432 53.879,210.500 53.833 C 211.236 53.331,211.224 30.295,210.487 30.028 C 210.402 29.997,210.333 29.836,210.333 29.670 C 210.333 29.216,209.672 27.167,209.525 27.167 C 209.455 27.167,209.273 26.885,209.121 26.542 C 208.726 25.649,206.117 22.667,205.731 22.667 C 205.683 22.667,205.406 22.487,205.114 22.268 C 204.235 21.608,202.282 20.723,200.978 20.395 C 200.302 20.225,199.713 20.042,199.667 19.988 C 199.224 19.466,191.573 19.199,188.167 19.586 M254.500 19.410 C 254.362 19.443,253.594 19.560,252.792 19.669 C 251.990 19.779,251.333 19.935,251.333 20.017 C 251.333 20.099,251.193 20.167,251.022 20.167 C 250.169 20.167,247.749 21.146,246.387 22.042 C 246.003 22.294,245.639 22.500,245.577 22.500 C 245.292 22.500,242.466 25.294,242.078 25.958 C 241.904 26.256,241.714 26.500,241.656 26.500 C 241.598 26.500,241.413 26.819,241.244 27.208 C 241.075 27.598,240.850 28.029,240.743 28.167 C 240.636 28.304,240.408 28.979,240.237 29.667 C 240.066 30.354,239.849 30.970,239.755 31.036 C 239.516 31.201,239.517 52.133,239.756 52.298 C 239.850 52.363,240.025 52.898,240.143 53.487 C 240.331 54.424,241.340 56.767,241.655 57.000 C 241.717 57.046,241.928 57.348,242.124 57.671 C 242.573 58.410,244.668 60.488,245.285 60.807 C 245.541 60.939,245.810 61.149,245.883 61.274 C 245.957 61.398,246.108 61.500,246.220 61.500 C 246.331 61.500,246.684 61.675,247.003 61.889 C 247.322 62.103,247.996 62.421,248.500 62.596 C 249.004 62.771,249.461 62.974,249.514 63.048 C 249.623 63.196,252.534 63.828,253.125 63.831 C 253.331 63.832,253.500 63.908,253.500 64.000 C 253.500 64.207,259.608 64.230,259.735 64.023 C 259.784 63.945,260.257 63.830,260.787 63.769 C 261.913 63.638,263.607 63.195,264.083 62.906 C 264.267 62.795,264.717 62.611,265.083 62.498 C 265.450 62.384,265.862 62.197,266.000 62.082 C 266.137 61.968,266.505 61.744,266.818 61.586 C 267.130 61.427,267.538 61.156,267.724 60.982 C 267.910 60.809,268.135 60.667,268.223 60.667 C 268.450 60.667,271.500 57.500,271.500 57.265 C 271.500 57.207,271.685 56.880,271.910 56.538 C 272.136 56.196,272.436 55.579,272.578 55.167 C 272.720 54.754,272.907 54.267,272.993 54.083 C 273.533 52.942,273.566 52.342,273.627 42.667 C 273.689 32.804,273.608 30.909,273.076 29.750 C 272.950 29.475,272.728 28.892,272.582 28.454 C 272.320 27.667,271.767 26.693,271.260 26.125 C 271.117 25.965,271.000 25.772,271.000 25.696 C 271.000 25.491,268.469 23.000,268.261 23.000 C 268.161 23.000,267.987 22.850,267.872 22.667 C 267.758 22.483,267.555 22.333,267.422 22.333 C 267.289 22.333,267.045 22.195,266.881 22.027 C 266.718 21.858,266.227 21.577,265.792 21.402 C 265.357 21.227,265.001 21.038,265.001 20.981 C 265.000 20.925,264.381 20.705,263.625 20.493 C 262.869 20.280,262.212 20.059,262.167 20.001 C 261.886 19.651,255.525 19.160,254.500 19.410 M337.417 19.607 C 336.500 19.752,335.712 19.925,335.667 19.991 C 335.621 20.057,335.027 20.254,334.348 20.428 C 333.668 20.602,333.031 20.825,332.931 20.923 C 332.831 21.021,332.412 21.232,332.000 21.393 C 331.587 21.554,330.938 21.906,330.556 22.176 C 330.174 22.446,329.821 22.667,329.770 22.667 C 329.166 22.667,325.514 26.899,325.503 27.613 C 325.501 27.721,325.394 27.915,325.265 28.044 C 325.012 28.297,324.333 30.410,324.333 30.943 C 324.333 31.121,324.240 31.360,324.125 31.475 C 323.821 31.780,323.821 51.857,324.125 51.958 C 324.240 51.997,324.333 52.193,324.333 52.396 C 324.333 53.379,325.628 56.833,325.997 56.833 C 326.068 56.833,326.227 57.077,326.350 57.375 C 326.606 57.996,329.394 60.833,329.748 60.833 C 329.878 60.833,330.043 60.938,330.117 61.067 C 330.282 61.356,333.128 62.833,333.520 62.833 C 333.677 62.833,333.831 62.910,333.863 63.005 C 333.920 63.176,336.751 63.827,337.458 63.831 C 337.665 63.832,337.833 63.908,337.833 64.000 C 337.833 64.208,344.108 64.230,344.236 64.022 C 344.286 63.942,344.721 63.827,345.205 63.765 C 346.299 63.625,348.222 63.160,348.333 63.009 C 348.379 62.946,348.885 62.722,349.458 62.511 C 350.031 62.299,350.500 62.060,350.500 61.980 C 350.500 61.899,350.590 61.833,350.700 61.833 C 351.004 61.833,353.116 60.372,353.226 60.085 C 353.279 59.947,353.428 59.833,353.557 59.833 C 353.686 59.833,354.083 59.487,354.438 59.064 C 354.793 58.642,355.211 58.157,355.368 57.988 C 355.525 57.819,355.805 57.382,355.991 57.018 C 356.177 56.654,356.399 56.312,356.485 56.259 C 356.571 56.206,356.770 55.770,356.928 55.290 C 357.087 54.810,357.278 54.376,357.353 54.326 C 358.481 53.585,358.460 30.151,357.331 29.333 C 357.268 29.287,357.089 28.864,356.933 28.391 C 356.778 27.919,356.504 27.364,356.325 27.157 C 356.146 26.951,356.000 26.699,356.000 26.598 C 356.000 26.496,355.738 26.114,355.419 25.748 C 355.099 25.383,354.797 24.971,354.746 24.833 C 354.696 24.696,354.301 24.303,353.869 23.961 C 353.437 23.619,352.821 23.113,352.500 22.836 C 352.179 22.560,351.832 22.334,351.729 22.334 C 351.625 22.334,351.449 22.222,351.336 22.087 C 351.113 21.818,350.218 21.333,349.946 21.333 C 349.853 21.333,349.647 21.216,349.488 21.073 C 349.232 20.841,348.198 20.483,347.000 20.211 C 346.771 20.159,346.546 20.064,346.500 19.998 C 346.129 19.469,339.967 19.204,337.417 19.607 M131.833 20.324 C 131.833 20.581,132.520 21.667,132.683 21.667 C 132.766 21.667,132.833 21.745,132.833 21.841 C 132.833 22.011,134.104 24.002,134.533 24.504 C 134.652 24.644,134.898 25.038,135.080 25.379 C 135.261 25.721,135.453 26.000,135.507 26.000 C 135.561 26.000,135.774 26.300,135.980 26.667 C 136.186 27.033,136.425 27.333,136.511 27.333 C 136.596 27.333,136.667 27.412,136.667 27.507 C 136.667 27.700,138.016 29.765,138.414 30.181 C 138.553 30.326,138.667 30.513,138.668 30.597 C 138.669 30.681,138.969 31.125,139.333 31.583 C 139.698 32.042,139.997 32.507,139.998 32.617 C 139.999 32.727,140.102 32.877,140.227 32.950 C 140.353 33.023,140.579 33.327,140.732 33.625 C 140.884 33.923,141.082 34.167,141.171 34.167 C 141.260 34.167,141.338 34.260,141.343 34.375 C 141.348 34.490,141.536 34.846,141.760 35.167 C 141.984 35.487,142.367 36.048,142.610 36.413 C 142.853 36.778,143.146 37.170,143.260 37.284 C 143.375 37.399,143.569 37.719,143.692 37.996 C 143.814 38.273,143.970 38.500,144.037 38.500 C 144.105 38.500,144.313 38.800,144.500 39.167 C 144.687 39.533,144.914 39.833,145.003 39.833 C 145.093 39.833,145.167 39.914,145.167 40.012 C 145.167 40.110,145.392 40.517,145.667 40.917 C 146.240 41.749,146.264 41.890,145.908 42.292 C 145.472 42.783,144.167 44.808,144.167 44.993 C 144.167 45.088,144.094 45.167,144.004 45.167 C 143.915 45.167,143.716 45.410,143.562 45.708 C 143.408 46.006,143.191 46.325,143.080 46.417 C 142.969 46.508,142.736 46.839,142.564 47.152 C 142.391 47.464,142.081 47.907,141.875 48.134 C 141.669 48.362,141.500 48.625,141.500 48.719 C 141.500 48.812,141.384 49.007,141.242 49.153 C 141.100 49.298,140.632 49.953,140.200 50.609 C 139.769 51.264,139.023 52.373,138.542 53.072 C 138.060 53.771,137.667 54.416,137.667 54.505 C 137.667 54.594,137.593 54.667,137.503 54.667 C 137.414 54.667,137.187 54.967,137.000 55.333 C 136.813 55.700,136.586 56.000,136.497 56.000 C 136.407 56.000,136.333 56.078,136.333 56.172 C 136.333 56.267,135.940 56.911,135.458 57.604 C 134.977 58.296,134.419 59.100,134.218 59.390 C 134.017 59.680,133.848 60.010,133.843 60.125 C 133.838 60.240,133.760 60.333,133.670 60.333 C 133.580 60.333,133.354 60.633,133.167 61.000 C 132.980 61.367,132.753 61.667,132.663 61.667 C 132.573 61.667,132.500 61.749,132.500 61.849 C 132.500 61.949,132.350 62.221,132.167 62.455 C 131.464 63.348,131.377 63.333,137.349 63.333 C 142.724 63.333,142.867 63.325,142.952 63.000 C 143.000 62.817,143.107 62.667,143.190 62.667 C 143.273 62.667,143.418 62.466,143.511 62.222 C 143.604 61.977,143.940 61.423,144.257 60.991 C 144.574 60.559,144.833 60.122,144.833 60.019 C 144.833 59.917,144.896 59.833,144.972 59.833 C 145.048 59.833,145.214 59.627,145.340 59.375 C 145.466 59.123,145.817 58.569,146.118 58.144 C 146.420 57.720,146.667 57.297,146.667 57.206 C 146.667 57.115,146.783 56.944,146.926 56.825 C 147.069 56.707,147.297 56.344,147.433 56.019 C 147.569 55.694,147.742 55.388,147.818 55.339 C 147.894 55.290,148.106 54.950,148.290 54.583 C 148.794 53.578,149.714 51.928,149.823 51.833 C 149.876 51.788,150.069 51.451,150.252 51.086 C 150.434 50.721,150.668 50.330,150.772 50.219 C 150.876 50.107,151.101 49.675,151.272 49.258 C 151.658 48.320,151.744 48.318,152.210 49.235 C 152.792 50.383,154.381 53.241,154.488 53.333 C 154.540 53.379,154.765 53.792,154.987 54.250 C 155.208 54.708,155.433 55.121,155.487 55.167 C 155.540 55.212,155.733 55.550,155.917 55.917 C 156.100 56.283,156.381 56.729,156.542 56.906 C 156.702 57.084,156.833 57.314,156.833 57.417 C 156.833 57.520,156.976 57.757,157.151 57.945 C 157.326 58.133,157.621 58.583,157.806 58.946 C 157.991 59.309,158.260 59.704,158.404 59.823 C 158.549 59.943,158.667 60.130,158.667 60.239 C 158.667 60.348,158.798 60.583,158.958 60.761 C 159.119 60.939,159.432 61.422,159.654 61.834 C 159.876 62.246,160.157 62.643,160.279 62.717 C 160.400 62.790,160.500 62.959,160.500 63.092 C 160.500 63.298,161.306 63.333,166.000 63.333 C 171.902 63.333,171.828 63.345,171.167 62.500 C 170.987 62.271,170.839 61.990,170.837 61.875 C 170.835 61.760,170.760 61.667,170.670 61.667 C 170.580 61.667,170.354 61.367,170.167 61.000 C 169.980 60.633,169.772 60.332,169.705 60.331 C 169.638 60.329,169.400 59.954,169.176 59.497 C 168.951 59.041,168.717 58.667,168.654 58.667 C 168.592 58.667,168.447 58.440,168.332 58.163 C 168.217 57.886,168.039 57.604,167.936 57.538 C 167.834 57.471,167.568 57.079,167.346 56.667 C 167.124 56.254,166.843 55.857,166.721 55.783 C 166.600 55.710,166.500 55.552,166.500 55.433 C 166.500 55.313,166.331 55.029,166.125 54.801 C 165.919 54.573,165.606 54.131,165.429 53.818 C 165.253 53.506,165.057 53.212,164.993 53.167 C 164.930 53.121,164.717 52.765,164.519 52.375 C 164.321 51.985,164.086 51.667,163.997 51.667 C 163.907 51.667,163.831 51.573,163.828 51.458 C 163.825 51.344,163.604 50.950,163.337 50.583 C 163.070 50.217,162.726 49.673,162.573 49.375 C 162.420 49.077,162.242 48.833,162.177 48.833 C 162.112 48.833,161.891 48.496,161.685 48.083 C 161.479 47.671,161.252 47.333,161.182 47.333 C 161.111 47.333,160.976 47.162,160.880 46.953 C 160.785 46.744,160.342 46.022,159.895 45.349 C 159.449 44.677,159.008 44.004,158.917 43.855 C 158.825 43.706,158.506 43.236,158.208 42.811 C 157.910 42.386,157.667 41.958,157.667 41.858 C 157.667 41.581,158.212 40.500,158.353 40.500 C 158.421 40.500,158.645 40.162,158.851 39.750 C 159.057 39.338,159.276 39.000,159.338 39.000 C 159.399 39.000,159.585 38.700,159.750 38.333 C 159.915 37.967,160.107 37.667,160.175 37.667 C 160.244 37.667,160.458 37.362,160.652 36.991 C 160.846 36.619,161.153 36.155,161.336 35.959 C 161.518 35.764,161.667 35.520,161.667 35.417 C 161.667 35.314,161.802 35.084,161.967 34.906 C 162.132 34.729,162.413 34.323,162.592 34.005 C 162.770 33.687,163.048 33.279,163.208 33.099 C 163.369 32.918,163.500 32.686,163.500 32.583 C 163.500 32.480,163.634 32.251,163.797 32.073 C 163.960 31.895,164.277 31.450,164.500 31.083 C 164.723 30.717,164.966 30.342,165.039 30.250 C 165.360 29.849,166.000 28.866,166.322 28.282 C 166.514 27.933,166.820 27.488,167.002 27.293 C 167.184 27.097,167.333 26.853,167.333 26.750 C 167.333 26.647,167.468 26.417,167.633 26.240 C 167.798 26.062,168.080 25.656,168.258 25.338 C 168.437 25.020,168.715 24.612,168.875 24.432 C 169.035 24.251,169.167 24.020,169.167 23.917 C 169.167 23.814,169.316 23.570,169.498 23.374 C 169.680 23.179,169.988 22.714,170.181 22.343 C 170.375 21.971,170.587 21.667,170.653 21.667 C 170.783 21.667,171.333 20.585,171.333 20.328 C 171.333 20.227,169.330 20.167,166.030 20.167 L 160.727 20.167 160.370 20.577 C 160.174 20.803,159.853 21.301,159.658 21.684 C 159.462 22.067,159.232 22.463,159.145 22.565 C 158.911 22.841,157.667 24.806,157.667 24.901 C 157.667 24.946,157.442 25.317,157.167 25.724 C 156.892 26.132,156.667 26.543,156.667 26.637 C 156.667 26.732,156.570 26.909,156.451 27.030 C 156.216 27.270,155.481 28.525,154.954 29.583 C 154.772 29.950,154.561 30.290,154.485 30.339 C 154.408 30.388,154.188 30.763,153.995 31.172 C 153.802 31.582,153.387 32.329,153.073 32.833 C 152.759 33.337,152.377 34.031,152.226 34.375 C 151.914 35.080,151.579 35.182,151.406 34.625 C 151.299 34.282,150.189 32.311,149.880 31.917 C 149.809 31.825,149.568 31.356,149.347 30.875 C 149.125 30.394,148.895 30.000,148.836 30.000 C 148.777 30.000,148.562 29.644,148.357 29.208 C 147.983 28.412,147.310 27.227,147.054 26.916 C 146.979 26.824,146.735 26.411,146.513 25.999 C 146.291 25.587,146.010 25.190,145.888 25.117 C 145.766 25.043,145.667 24.909,145.667 24.818 C 145.667 24.616,144.450 22.686,144.091 22.319 C 143.949 22.174,143.833 21.988,143.833 21.906 C 143.833 21.824,143.590 21.399,143.292 20.962 L 142.750 20.167 137.292 20.167 C 133.984 20.167,131.833 20.229,131.833 20.324 M360.333 20.355 C 360.333 20.558,361.583 22.477,361.894 22.750 C 361.998 22.842,362.265 23.254,362.487 23.667 C 362.709 24.079,362.990 24.477,363.112 24.550 C 363.234 24.623,363.333 24.755,363.333 24.842 C 363.333 25.020,365.435 28.155,365.730 28.417 C 365.833 28.508,366.067 28.869,366.250 29.219 C 366.433 29.568,366.715 29.974,366.875 30.120 C 367.035 30.266,367.167 30.460,367.167 30.552 C 367.167 30.644,367.467 31.117,367.833 31.603 C 368.200 32.088,368.500 32.564,368.500 32.660 C 368.500 32.755,368.573 32.833,368.663 32.833 C 368.753 32.833,368.980 33.133,369.167 33.500 C 369.354 33.867,369.580 34.167,369.670 34.167 C 369.760 34.167,369.833 34.243,369.833 34.337 C 369.833 34.430,370.040 34.816,370.292 35.195 C 370.544 35.573,370.825 36.003,370.917 36.149 C 371.008 36.296,371.279 36.650,371.519 36.937 C 371.758 37.224,372.058 37.693,372.184 37.980 C 372.311 38.266,372.470 38.500,372.537 38.500 C 372.605 38.500,372.813 38.800,373.000 39.167 C 373.187 39.533,373.414 39.833,373.503 39.833 C 373.593 39.833,373.669 39.927,373.671 40.042 C 373.674 40.156,373.899 40.545,374.171 40.905 C 374.729 41.642,374.780 41.937,374.414 42.319 C 374.016 42.735,372.667 44.800,372.667 44.993 C 372.667 45.088,372.596 45.167,372.511 45.167 C 372.425 45.167,372.186 45.467,371.980 45.833 C 371.774 46.200,371.561 46.500,371.507 46.500 C 371.453 46.500,371.261 46.778,371.080 47.117 C 370.898 47.457,370.581 47.918,370.375 48.142 C 370.169 48.365,370.000 48.625,370.000 48.719 C 370.000 48.812,369.886 49.007,369.746 49.153 C 369.606 49.298,369.122 49.979,368.670 50.667 C 368.218 51.354,367.470 52.462,367.007 53.128 C 366.545 53.794,366.167 54.409,366.167 54.494 C 366.167 54.580,366.064 54.710,365.939 54.783 C 365.814 54.857,365.589 55.142,365.439 55.417 C 365.289 55.692,364.831 56.367,364.422 56.917 C 364.013 57.467,363.555 58.160,363.404 58.458 C 363.252 58.756,363.076 59.000,363.011 59.000 C 362.946 59.000,362.724 59.338,362.518 59.750 C 362.312 60.163,362.079 60.500,362.000 60.500 C 361.920 60.500,361.812 60.638,361.758 60.807 C 361.705 60.976,361.362 61.515,360.997 62.004 C 359.941 63.420,359.627 63.333,365.811 63.333 L 371.288 63.333 371.690 62.708 C 371.911 62.365,372.182 61.933,372.293 61.750 C 373.203 60.245,373.444 59.876,373.704 59.594 C 373.867 59.416,374.000 59.210,374.000 59.136 C 374.000 59.061,374.262 58.635,374.583 58.189 C 374.904 57.742,375.167 57.292,375.167 57.188 C 375.167 57.085,375.236 57.000,375.320 57.000 C 375.404 57.000,375.642 56.625,375.849 56.167 C 376.057 55.708,376.280 55.333,376.345 55.333 C 376.410 55.333,376.580 55.043,376.722 54.689 C 376.864 54.334,377.079 53.940,377.201 53.814 C 377.323 53.687,377.564 53.265,377.737 52.875 C 377.909 52.485,378.097 52.167,378.153 52.167 C 378.209 52.167,378.439 51.773,378.665 51.292 C 378.891 50.810,379.162 50.326,379.268 50.216 C 379.374 50.106,379.601 49.675,379.772 49.258 C 380.193 48.235,380.151 48.199,381.561 50.792 C 382.247 52.052,382.872 53.158,382.952 53.250 C 383.031 53.342,383.198 53.667,383.324 53.973 C 383.449 54.278,383.638 54.616,383.743 54.723 C 383.848 54.829,384.114 55.292,384.334 55.750 C 384.554 56.208,384.869 56.729,385.034 56.906 C 385.199 57.084,385.333 57.314,385.333 57.417 C 385.333 57.520,385.465 57.751,385.625 57.932 C 385.785 58.112,386.063 58.520,386.242 58.838 C 386.420 59.156,386.702 59.562,386.867 59.740 C 387.032 59.917,387.167 60.147,387.167 60.250 C 387.167 60.353,387.298 60.583,387.458 60.761 C 387.619 60.939,387.933 61.422,388.157 61.834 C 388.381 62.246,388.663 62.682,388.782 62.804 C 388.902 62.925,389.000 63.093,389.000 63.179 C 389.000 63.271,391.226 63.333,394.500 63.333 C 400.402 63.333,400.328 63.345,399.667 62.500 C 399.487 62.271,399.339 61.987,399.337 61.870 C 399.335 61.752,399.228 61.616,399.099 61.566 C 398.969 61.517,398.772 61.255,398.660 60.984 C 398.548 60.713,398.372 60.438,398.270 60.371 C 398.167 60.304,397.900 59.913,397.675 59.500 C 397.450 59.087,397.204 58.675,397.127 58.583 C 397.050 58.492,396.655 57.892,396.248 57.250 C 395.842 56.608,395.395 55.965,395.255 55.819 C 395.115 55.674,395.000 55.479,395.000 55.385 C 395.000 55.292,394.831 55.031,394.625 54.805 C 394.419 54.579,394.068 54.062,393.846 53.656 C 393.623 53.249,393.390 52.879,393.327 52.833 C 393.265 52.788,393.088 52.506,392.936 52.208 C 392.783 51.910,392.604 51.666,392.537 51.664 C 392.471 51.663,392.233 51.288,392.009 50.831 C 391.785 50.374,391.548 50.000,391.484 50.000 C 391.420 50.000,391.201 49.681,390.999 49.292 C 390.796 48.902,390.572 48.546,390.501 48.500 C 390.429 48.454,390.231 48.184,390.060 47.899 C 389.776 47.426,389.308 46.708,388.045 44.811 C 387.791 44.429,387.508 43.997,387.417 43.850 C 387.325 43.703,387.006 43.236,386.708 42.811 C 386.004 41.806,386.007 41.784,387.099 40.147 C 387.611 39.379,388.146 38.525,388.288 38.250 C 388.429 37.975,388.647 37.690,388.773 37.617 C 388.898 37.543,389.000 37.403,389.000 37.306 C 389.000 37.208,389.262 36.770,389.583 36.333 C 389.904 35.896,390.167 35.464,390.167 35.373 C 390.167 35.282,390.285 35.110,390.429 34.990 C 390.573 34.870,390.842 34.475,391.028 34.113 C 391.213 33.750,391.507 33.300,391.682 33.112 C 391.857 32.924,392.000 32.686,392.000 32.583 C 392.000 32.480,392.131 32.250,392.292 32.070 C 392.718 31.594,393.776 29.990,394.014 29.458 C 394.128 29.206,394.276 29.000,394.343 29.000 C 394.411 29.000,394.625 28.696,394.819 28.324 C 395.012 27.952,395.320 27.488,395.502 27.293 C 395.684 27.097,395.833 26.850,395.833 26.744 C 395.833 26.638,395.965 26.432,396.125 26.286 C 396.285 26.140,396.567 25.735,396.750 25.385 C 396.933 25.036,397.215 24.605,397.375 24.427 C 397.535 24.249,397.667 24.024,397.667 23.927 C 397.667 23.830,397.852 23.535,398.078 23.272 C 398.305 23.009,398.585 22.577,398.702 22.313 C 398.819 22.049,398.970 21.833,399.037 21.833 C 399.177 21.833,399.833 20.603,399.833 20.340 C 399.833 20.224,398.087 20.167,394.520 20.167 L 389.206 20.167 388.794 20.708 C 388.568 21.006,388.249 21.512,388.085 21.833 C 387.921 22.154,387.735 22.454,387.673 22.500 C 387.610 22.546,387.377 22.918,387.154 23.326 C 386.932 23.735,386.619 24.203,386.458 24.368 C 386.298 24.532,386.167 24.742,386.167 24.835 C 386.167 24.927,385.942 25.313,385.667 25.693 C 385.392 26.073,385.167 26.479,385.167 26.596 C 385.167 26.714,385.062 26.914,384.935 27.042 C 384.807 27.169,384.505 27.643,384.263 28.095 C 384.022 28.547,383.627 29.254,383.387 29.667 C 382.708 30.833,382.051 32.006,381.566 32.917 C 381.322 33.375,381.069 33.787,381.004 33.833 C 380.938 33.879,380.779 34.136,380.651 34.404 C 380.299 35.138,380.121 35.086,379.683 34.125 C 379.464 33.644,379.234 33.212,379.172 33.167 C 379.068 33.089,378.291 31.726,377.701 30.583 C 377.559 30.308,377.384 30.043,377.311 29.994 C 377.239 29.945,377.016 29.533,376.816 29.078 C 376.616 28.622,376.398 28.212,376.332 28.167 C 376.265 28.121,376.009 27.708,375.762 27.250 C 374.947 25.734,374.477 25.000,374.321 25.000 C 374.236 25.000,374.167 24.922,374.167 24.826 C 374.167 24.626,372.990 22.725,372.597 22.292 C 372.452 22.131,372.333 21.958,372.333 21.907 C 372.333 21.855,372.091 21.443,371.794 20.990 L 371.255 20.167 365.794 20.167 C 361.850 20.167,360.333 20.219,360.333 20.355 M281.410 20.542 C 281.367 20.656,281.350 30.313,281.374 42.000 L 281.417 63.250 286.375 63.294 L 291.333 63.338 291.333 41.836 L 291.333 20.333 286.411 20.333 C 282.627 20.333,281.471 20.381,281.410 20.542 M193.833 27.667 C 193.833 27.758,194.157 27.833,194.553 27.833 C 195.330 27.833,197.651 28.387,197.816 28.612 C 197.871 28.688,198.217 28.900,198.583 29.083 C 199.486 29.535,200.187 30.260,200.857 31.435 L 201.417 32.417 201.467 41.151 C 201.498 46.613,201.453 50.179,201.348 50.671 C 200.960 52.481,199.212 54.348,197.366 54.922 C 196.844 55.085,196.379 55.271,196.333 55.335 C 195.919 55.917,188.402 55.906,188.000 55.323 C 187.954 55.256,187.579 55.135,187.167 55.054 L 186.417 54.906 186.374 41.957 L 186.331 29.007 186.749 28.902 C 186.979 28.844,187.167 28.743,187.167 28.676 C 187.167 28.484,189.462 27.979,190.792 27.877 C 191.456 27.827,192.000 27.721,192.000 27.643 C 192.000 27.564,192.412 27.500,192.917 27.500 C 193.421 27.500,193.833 27.575,193.833 27.667 M258.000 28.667 C 258.000 28.758,258.212 28.833,258.472 28.833 C 259.086 28.833,261.167 29.487,261.167 29.680 C 261.167 29.762,261.412 29.931,261.711 30.056 C 262.204 30.262,262.734 30.781,263.536 31.842 C 264.130 32.628,264.191 33.683,264.136 42.167 L 264.083 50.417 263.642 51.167 C 261.683 54.496,256.656 55.987,253.214 54.258 C 252.749 54.025,252.315 53.833,252.249 53.833 C 252.184 53.833,251.942 53.665,251.712 53.458 C 250.523 52.393,249.946 51.728,249.536 50.946 L 249.084 50.083 249.036 41.794 L 248.988 33.504 249.401 32.603 C 250.237 30.773,252.098 29.367,254.208 28.969 C 254.827 28.853,255.333 28.699,255.333 28.629 C 255.333 28.558,255.933 28.500,256.667 28.500 C 257.444 28.500,258.000 28.569,258.000 28.667 M342.500 28.667 C 342.500 28.758,342.680 28.833,342.899 28.833 C 343.446 28.833,345.500 29.481,345.500 29.653 C 345.500 29.730,345.728 29.887,346.007 30.003 C 346.712 30.295,348.132 31.937,348.379 32.746 C 349.038 34.908,348.550 51.667,347.827 51.667 C 347.757 51.667,347.559 51.888,347.388 52.159 C 347.110 52.598,345.357 54.000,345.086 54.000 C 345.027 54.000,344.590 54.182,344.115 54.405 C 342.590 55.119,339.399 55.130,338.001 54.427 C 337.771 54.312,337.285 54.075,336.921 53.900 C 335.704 53.318,334.291 51.890,333.983 50.930 C 333.862 50.556,333.686 50.197,333.590 50.131 C 333.474 50.051,333.417 47.282,333.417 41.714 L 333.417 33.417 333.881 32.442 C 334.358 31.438,335.192 30.521,336.074 30.030 C 336.351 29.876,336.675 29.659,336.794 29.548 C 337.065 29.296,338.005 29.020,339.042 28.888 C 339.477 28.832,339.833 28.722,339.833 28.643 C 339.833 28.565,340.433 28.500,341.167 28.500 C 341.944 28.500,342.500 28.569,342.500 28.667 " stroke="none" fill="#ec1a5a" fill-rule="evenodd"></path><path id="path2" d="" stroke="none" fill="#f01030" fill-rule="evenodd"></path><path id="path3" d="" stroke="none" fill="#401030" fill-rule="evenodd"></path><path id="path4" d="" stroke="none" fill="#041034" fill-rule="evenodd"></path></g></svg>